# xmcd
#
# Track frame offsets:
#	150
#	13781
#	26375
#	39761
#	58613
#	73609
#	86724
#	99177
#	109822
#	127540
#	138653
#	153878
#	167848
#	176046
#	192809
#	211400
#	225683
#	246666
#	258931
#	271778
#	283389
#
# Disc length: 3988 seconds
#
# Revision: 2
# Processed by: cddbd v1.4PL0 Copyright (c) Steve Scherf et al.
# Submitted via: MusicWizard 6.0.2
#
DISCID=200f9215
DTITLE=Various Artist - The All Time Greatest Country Songs [CD1&2) [CD 1/2)
DYEAR=1900
DGENRE=Country
TTITLE0=Kenny Rogers - Ruby Don't Take Your Love To Town
TTITLE1=Nilsson - Everybody's Talkin'
TTITLE2=Charlie Rich - Behind Closed Doors
TTITLE3=Juice Newton - Angel Of The Morning
TTITLE4=Bob Dylan - Lay Lady Lay
TTITLE5=Olivia Newton John - If Not For You
TTITLE6=Patsy Cline - Crazy
TTITLE7=Jim Reeves - He'll Have To Go
TTITLE8=Linda Ronstadt - Blue Bayou
TTITLE9=Dolly Parton... - Silver Threads And Golden Needles
TTITLE10=Billy Jo Spears - I Will Survive
TTITLE11=Reba McEntire - Cathy's Clown
TTITLE12=John D. Loudermilk - Language Of Love
TTITLE13=Emmylou Harris/Gram Parsons - Love Hurts
TTITLE14=Kris Kristofferson - Me And Bobby Mc Gee
TTITLE15=John Denver - Take Me Home, Country Roads (Live)
TTITLE16=Shawn Colvin - I Don't Know Why
TTITLE17=Glen Campbell - By The Time I Get To Phoenix
TTITLE18=Roy Orbinson - Crying
TTITLE19=Cristal Gayle - Don't It Make My Brown Eyes Blue
TTITLE20=Willie Nelson - Always On My Mind
EXTD=
EXTT0=
EXTT1=
EXTT2=
EXTT3=
EXTT4=
EXTT5=
EXTT6=
EXTT7=
EXTT8=
EXTT9=
EXTT10=reprise de Gloria Gaynor ??\n
EXTT11=
EXTT12=
EXTT13=
EXTT14=
EXTT15=live\n
EXTT16=
EXTT17=
EXTT18=
EXTT19=
EXTT20=
PLAYORDER=
